<svg xmlns="http://www.w3.org/2000/svg" version="1.1" xmlns:xlink="http://www.w3.org/1999/xlink" xmlns:svgjs="http://svgjs.dev/svgjs" width="1000" height="1125" viewBox="0 0 1000 1125"><g transform="matrix(1,0,0,1,0,0)"><svg viewBox="0 0 320 360" data-background-color="#ffffff" preserveAspectRatio="xMidYMid meet" height="1125" width="1000" xmlns="http://www.w3.org/2000/svg" xmlns:xlink="http://www.w3.org/1999/xlink"><g id="tight-bounds" transform="matrix(1,0,0,1,0,0)"><svg viewBox="0 0 320 360" height="360" width="320"><g><svg></svg></g><g><svg viewBox="0 0 320 360" height="360" width="320"><g><path xmlns="http://www.w3.org/2000/svg" d="M320 187.111c0-45.764-20.238-86.866-52.203-114.908-28.043-31.964-69.145-52.203-114.908-52.203-84.302 0-152.889 68.587-152.889 152.889 0 45.753 20.231 86.848 52.185 114.891 28.043 31.975 69.152 52.22 114.926 52.22 0.299 0 0.59-0.021 0.889-0.021 0.299 0 0.59 0.021 0.889 0.021 83.456 0 151.111-67.655 151.111-151.111 0-0.299-0.021-0.59-0.021-0.889 0-0.299 0.021-0.59 0.021-0.889zM59.833 263.097c-15.093-21.255-24.071-47.143-24.256-75.097 0.48-72.928 59.492-131.943 132.423-132.423 27.954 0.185 53.845 9.163 75.097 24.256 24.366 23.627 39.57 56.64 39.57 93.056 0 71.559-58.219 129.778-129.778 129.778-36.416 0-69.429-15.204-93.056-39.57zM3.556 172.889c0-82.343 66.99-149.333 149.333-149.333 35.051 0 67.292 12.167 92.8 32.462-22.98-13.824-49.863-21.796-78.578-21.796-84.302 0-152.889 68.587-152.889 152.889 0 28.708 7.968 55.584 21.785 78.56-20.288-25.5-32.452-57.739-32.451-92.782zM167.111 318.667c-35.84 0-68.363-14.418-92.107-37.743 21.952 15.89 48.864 25.298 77.885 25.298 73.522 0 133.333-59.812 133.333-133.333 0-29.02-9.408-55.932-25.298-77.885 23.324 23.744 37.742 56.267 37.743 92.107 0 72.54-59.015 131.556-131.556 131.556z" fill="#ff0000" fill-rule="nonzero" stroke="none" stroke-width="1" stroke-linecap="butt" stroke-linejoin="miter" stroke-miterlimit="10" stroke-dasharray="" stroke-dashoffset="0" font-family="none" font-weight="none" font-size="none" text-anchor="none" style="mix-blend-mode: normal" data-fill-palette-color="tertiary"></path></g><g transform="matrix(1,0,0,1,77.95483870967742,99)"><svg viewBox="0 0 164.09032258064516 162" height="162" width="164.09032258064516"><g><svg viewBox="0 0 164.09032258064516 162" height="162" width="164.09032258064516"><g><svg viewBox="0 0 164.09032258064516 162" height="162" width="164.09032258064516"><g><svg viewBox="0 0 164.09032258064516 162" height="162" width="164.09032258064516"><g id="textblocktransform"><svg viewBox="0 0 164.09032258064516 162" height="162" width="164.09032258064516" id="textblock"><g><svg viewBox="0 0 164.09032258064516 162" height="162" width="164.09032258064516"><g transform="matrix(1,0,0,1,0,0)"><svg width="164.09032258064516" viewBox="-4.699999988079071 -30.149999618530273 40.25 39.75" height="162" data-palette-color="#ff0000"><path d="M21.15-22L21.15-22Q19.15-22.3 16.88-22.3 14.6-22.3 12.45-22L12.45-22Q13.8-19.7 15.65-18.25 17.5-16.8 20.33-15.38 23.15-13.95 24.93-12.75 26.7-11.55 28.85-8.8 31-6.05 31.55-3.05L31.55-3.05Q29.15 0.05 25.2 2.43 21.25 4.8 17.1 5.6L17.1 5.6Q14.3 5.35 10.03 4.03 5.75 2.7 3.6 2.7 1.45 2.7-0.7 4.05L-0.7 4.05Q0.2 1.5 2.25-2.35L2.25-2.35 2.65-2.35Q5.85-2.35 8.68-1.35 11.5-0.35 13.83 0.65 16.15 1.65 17.57 1.65 19 1.65 19.65 1.45L19.65 1.45Q19.65-1.85 17.6-4L17.6-4Q16.5-5.15 15.73-5.78 14.95-6.4 13.35-7.5L13.35-7.5 12.5-8.1Q9.1-10.45 6.9-12.88 4.7-15.3 3.7-18.85L3.7-18.85Q5.3-22.4 6.85-25L6.85-25Q11.6-26.15 16.7-26.15L16.7-26.15 18.9-26.15Q23.2-26.15 28.75-24.95L28.75-24.95Q27.95-21.65 26.8-19L26.8-19Q22.6-18.7 20.3-18.7L20.3-18.7Q20.75-19.85 21.15-22Z" opacity="1" transform="matrix(1,0,0,1,0,0)" fill="#ff0000" class="wordmark-text-0" data-fill-palette-color="primary" id="text-0"></path></svg></g></svg></g></svg></g></svg></g><g></g></svg></g></svg></g></svg></g></svg></g><defs></defs></svg><rect width="320" height="360" fill="none" stroke="none" visibility="hidden"></rect></g></svg></g></svg>
